<svg xmlns="http://www.w3.org/2000/svg" viewBox="0 0 64 64" fill="none">
  <defs>
    <linearGradient id="bg" x1="8" y1="6" x2="58" y2="58" gradientUnits="userSpaceOnUse">
      <stop stop-color="#101a31" />
      <stop offset="1" stop-color="#08101e" />
    </linearGradient>
    <linearGradient id="petal" x1="24" y1="14" x2="48" y2="40" gradientUnits="userSpaceOnUse">
      <stop stop-color="#ffd5f2" />
      <stop offset="1" stop-color="#c59dff" />
    </linearGradient>
    <linearGradient id="letter" x1="16" y1="20" x2="44" y2="48" gradientUnits="userSpaceOnUse">
      <stop stop-color="#7ee0ff" />
      <stop offset="1" stop-color="#b6f4ff" />
    </linearGradient>
  </defs>

  <rect x="2" y="2" width="60" height="60" rx="16" fill="url(#bg)" />
  <path
    d="M39.2 12.8c2 0 3.8 1.1 4.8 2.8 1.1 1.7 1.3 3.8.4 5.6-1.5 3.2-5.3 4.6-8.5 3.2l-.7-.4-.4.7c-1.7 2.9-5.5 3.9-8.4 2.2-2.9-1.7-3.9-5.5-2.2-8.4 1.7-2.9 5.5-3.9 8.4-2.2l.7.4.4-.7c1.1-2 3.2-3.2 5.5-3.2z"
    fill="url(#petal)"
    opacity=".95"
  />
  <path
    d="M19 44.5c0-5.3 3.9-8.4 10-8.4 2.9 0 5.1-.9 5.1-3 0-1.9-1.6-3-4.1-3-2.8 0-4.5 1-6 2.8l-4.2-3.2c2.1-2.9 5.7-4.8 10.6-4.8 6.5 0 10.8 3.2 10.8 8.1 0 5.5-4.7 8-10.6 8-2.5 0-4.4.9-4.4 2.8 0 2 1.9 3.1 4.7 3.1 2.7 0 4.7-1 6.6-2.8l3.8 3.4c-2.4 2.9-6 4.7-10.8 4.7-6.8 0-11.5-3.3-11.5-8.7z"
    fill="url(#letter)"
  />
</svg>
